<svg width="20" height="20" viewBox="0 0 20 20" fill="none" xmlns="http://www.w3.org/2000/svg">
<path d="M0 5C0 2.23858 2.23858 0 5 0H15C17.7614 0 20 2.23858 20 5V15C20 17.7614 17.7614 20 15 20H5C2.23858 20 0 17.7614 0 15V5Z" fill="url(#paint0_linear_1051_1538)"/>
<path d="M16 12.3515C16 12.6736 15.9581 12.9644 15.8744 13.2238C15.7948 13.4791 15.6881 13.705 15.5541 13.9017C15.4201 14.0983 15.2631 14.2657 15.083 14.4038C14.903 14.5418 14.7167 14.6548 14.5241 14.7427C14.3315 14.8305 14.1347 14.8954 13.9337 14.9372C13.7369 14.9791 13.5506 15 13.3747 15H7.07537V13.3682H13.3747C13.6888 13.3682 13.9316 13.2762 14.1033 13.0921C14.2791 12.908 14.3671 12.6611 14.3671 12.3515C14.3671 12.2008 14.344 12.0628 14.298 11.9372C14.2519 11.8117 14.1849 11.7029 14.097 11.6109C14.0133 11.5188 13.9086 11.4477 13.783 11.3975C13.6615 11.3473 13.5255 11.3222 13.3747 11.3222H9.61898C9.3552 11.3222 9.07048 11.2762 8.76483 11.1841C8.45918 11.0879 8.17446 10.9351 7.91068 10.7259C7.65108 10.5167 7.43336 10.2427 7.2575 9.90377C7.08583 9.56485 7 9.15063 7 8.66109C7 8.17155 7.08583 7.75941 7.2575 7.42469C7.43336 7.08577 7.65108 6.81172 7.91068 6.60251C8.17446 6.38912 8.45918 6.2364 8.76483 6.14435C9.07048 6.04812 9.3552 6 9.61898 6H15.1773V7.6318H9.61898C9.30914 7.6318 9.06629 7.72594 8.89044 7.91423C8.71877 8.10251 8.63294 8.35146 8.63294 8.66109C8.63294 8.9749 8.71877 9.22385 8.89044 9.40795C9.06629 9.58787 9.30914 9.67782 9.61898 9.67782H13.3873C13.5632 9.68201 13.7495 9.70711 13.9463 9.75314C14.1431 9.79498 14.3378 9.86192 14.5304 9.95398C14.7271 10.046 14.9135 10.1632 15.0893 10.3054C15.2652 10.4435 15.4201 10.6109 15.5541 10.8075C15.6923 11.0042 15.8011 11.2301 15.8807 11.4854C15.9602 11.7406 16 12.0293 16 12.3515Z" fill="#FF2625"/>
<path d="M4 15H6V6H4V15Z" fill="#FFC22A"/>
<defs>
<linearGradient id="paint0_linear_1051_1538" x1="1.5" y1="1.6" x2="16.1" y2="19.5" gradientUnits="userSpaceOnUse">
<stop stop-color="#01164F"/>
<stop offset="1" stop-color="#1436BB"/>
</linearGradient>
</defs>
</svg>
