<svg width="20" height="20" viewBox="0 0 20 20" fill="none" xmlns="http://www.w3.org/2000/svg">
<path d="M0 5C0 2.23858 2.23858 0 5 0H15C17.7614 0 20 2.23858 20 5V15C20 17.7614 17.7614 20 15 20H5C2.23858 20 0 17.7614 0 15V5Z" fill="url(#paint0_linear_1051_1533)"/>
<path d="M17.1484 12.8789C17.1484 13.3802 17.0833 13.8327 16.9531 14.2363C16.8294 14.6335 16.6634 14.985 16.4551 15.291C16.2467 15.597 16.0026 15.8574 15.7227 16.0723C15.4427 16.2871 15.153 16.4629 14.8535 16.5996C14.554 16.7363 14.248 16.8372 13.9355 16.9023C13.6296 16.9674 13.3398 17 13.0664 17H3.27148V14.4609H13.0664C13.5547 14.4609 13.9323 14.3177 14.1992 14.0313C14.4727 13.7448 14.6094 13.3607 14.6094 12.8789C14.6094 12.6445 14.5736 12.4297 14.502 12.2344C14.4303 12.0391 14.3262 11.8698 14.1895 11.7266C14.0592 11.5833 13.8965 11.4727 13.7012 11.3945C13.5124 11.3164 13.3008 11.2773 13.0664 11.2773H7.22656C6.81641 11.2773 6.3737 11.2057 5.89844 11.0625C5.42318 10.9128 4.98047 10.6751 4.57031 10.3496C4.16667 10.0241 3.82813 9.59766 3.55469 9.07031C3.28776 8.54297 3.1543 7.89844 3.1543 7.13672C3.1543 6.375 3.28776 5.73372 3.55469 5.21289C3.82813 4.68555 4.16667 4.25911 4.57031 3.93359C4.98047 3.60156 5.42318 3.36393 5.89844 3.2207C6.3737 3.07096 6.81641 2.99609 7.22656 2.99609H15.8691V5.53516H7.22656C6.74479 5.53516 6.36719 5.68164 6.09375 5.97461C5.82682 6.26758 5.69336 6.65495 5.69336 7.13672C5.69336 7.625 5.82682 8.01237 6.09375 8.29883C6.36719 8.57878 6.74479 8.71875 7.22656 8.71875H13.0859C13.3594 8.72526 13.6491 8.76432 13.9551 8.83594C14.2611 8.90104 14.5638 9.00521 14.8633 9.14844C15.1693 9.29167 15.459 9.47396 15.7324 9.69531C16.0059 9.91016 16.2467 10.1706 16.4551 10.4766C16.6699 10.7826 16.8392 11.1341 16.9629 11.5313C17.0866 11.9284 17.1484 12.3776 17.1484 12.8789Z" fill="#102989"/>
<path d="M11.6504 19.2002H8.34961V0.995117H11.6504V19.2002Z" fill="#FFC22A"/>
<defs>
<linearGradient id="paint0_linear_1051_1533" x1="1.5" y1="1.6" x2="16.1" y2="19.5" gradientUnits="userSpaceOnUse">
<stop stop-color="#4879FF"/>
<stop offset="1" stop-color="#FFE8B0" stop-opacity="0.72"/>
</linearGradient>
</defs>
</svg>
