<svg xmlns="http://www.w3.org/2000/svg" viewBox="0 0 228.95 105.1"><defs><style>.cls-1{font-size:45.62px;font-family:Pacifico-Regular, Pacifico;}.cls-1,.cls-4{fill:#1d1d1b;}.cls-2{letter-spacing:0.18em;}.cls-3{letter-spacing:-0.02em;}.cls-5,.cls-6{fill:none;stroke:#1d1d1b;stroke-miterlimit:10;}.cls-6{stroke-width:0.75px;}</style></defs><g id="Layer_2" data-name="Layer 2"><g id="Layer_1-2" data-name="Layer 1"><text class="cls-1" transform="translate(0.78 41.97)">ISA<tspan class="cls-2" x="90.05" y="0">R</tspan><tspan class="cls-3" x="138.4" y="0">.</tspan><tspan x="149.44" y="0">GA</tspan></text><path class="cls-4" d="M46,56.11V55h2.2v1.12Zm.12-6.44V48.49l2-.7V49Zm2,6.44V47.79h1.22v8.32Zm1.1,0V55h2v1.12Z"/><path class="cls-4" d="M55.52,56.22c-1.89,0-2.83-1.4-2.83-4.22s.94-4.33,2.83-4.33,2.84,1.44,2.84,4.33S57.41,56.22,55.52,56.22Zm0-1.07c1.06,0,1.58-1,1.58-3.15s-.52-3.25-1.58-3.25S53.94,49.83,53.94,52,54.47,55.15,55.52,55.15Zm0-2.27a.85.85,0,0,1-.63-.24.93.93,0,0,1,0-1.27.9.9,0,1,1,.63,1.51Z"/><path class="cls-4" d="M60,56.11V55h2.21v1.12Zm.12-6.44V48.49l2-.7V49Zm2,6.44V47.79h1.22v8.32Zm1.1,0V55h2v1.12Z"/><path class="cls-4" d="M69.58,56.22c-1.89,0-2.83-1.4-2.83-4.22s.94-4.33,2.83-4.33,2.84,1.44,2.84,4.33S71.47,56.22,69.58,56.22Zm0-1.07q1.59,0,1.59-3.15c0-2.17-.53-3.25-1.59-3.25S68,49.83,68,52,68.53,55.15,69.58,55.15Zm0-2.27a.83.83,0,1,1,.64-.24A.85.85,0,0,1,69.58,52.88Z"/><path class="cls-4" d="M76.62,56.22c-1.9,0-2.84-1.4-2.84-4.22s.94-4.33,2.84-4.33,2.83,1.44,2.83,4.33S78.51,56.22,76.62,56.22Zm0-1.07c1,0,1.58-1,1.58-3.15s-.53-3.25-1.58-3.25S75,49.83,75,52,75.56,55.15,76.62,55.15Zm0-2.27a.82.82,0,1,1,.63-.24A.86.86,0,0,1,76.62,52.88Z"/><path class="cls-4" d="M83.65,56.22c-1.89,0-2.84-1.4-2.84-4.22s1-4.33,2.84-4.33,2.83,1.44,2.83,4.33S85.54,56.22,83.65,56.22Zm0-1.07c1,0,1.58-1,1.58-3.15s-.53-3.25-1.58-3.25S82.06,49.83,82.06,52,82.59,55.15,83.65,55.15Zm0-2.27a.88.88,0,1,1,0-1.75.89.89,0,0,1,.64.24,1,1,0,0,1,0,1.27A.89.89,0,0,1,83.65,52.88Z"/><path class="cls-4" d="M90.68,56.22c-1.89,0-2.84-1.4-2.84-4.22s1-4.33,2.84-4.33,2.83,1.44,2.83,4.33S92.57,56.22,90.68,56.22Zm0-1.07c1,0,1.58-1,1.58-3.15s-.53-3.25-1.58-3.25S89.1,49.83,89.1,52,89.62,55.15,90.68,55.15Zm0-2.27a.88.88,0,0,1-.64-.24,1,1,0,0,1,0-1.27,1,1,0,0,1,1.28,0,1,1,0,0,1,0,1.27A.88.88,0,0,1,90.68,52.88Z"/><path class="cls-4" d="M95.19,56.11V55h2.2v1.12Zm.12-6.44V48.49l2-.7V49Zm2,6.44V47.79h1.21v8.32Zm1.1,0V55h2v1.12Z"/><path class="cls-4" d="M104.74,56.22c-1.89,0-2.84-1.4-2.84-4.22s.95-4.33,2.84-4.33,2.84,1.44,2.84,4.33S106.63,56.22,104.74,56.22Zm0-1.07c1.05,0,1.58-1,1.58-3.15s-.53-3.25-1.58-3.25-1.58,1.08-1.58,3.25S103.69,55.15,104.74,55.15Zm0-2.27a.89.89,0,0,1-.64-.24,1,1,0,0,1,0-1.27.89.89,0,0,1,.64-.24.88.88,0,1,1,0,1.75Z"/><path class="cls-4" d="M109.25,56.11V55h2.21v1.12Zm.12-6.44V48.49l2-.7V49Zm2,6.44V47.79h1.22v8.32Zm1.1,0V55h2v1.12Z"/><path class="cls-4" d="M118.8,56.22c-1.89,0-2.83-1.4-2.83-4.22s.94-4.33,2.83-4.33,2.84,1.44,2.84,4.33S120.69,56.22,118.8,56.22Zm0-1.07c1.06,0,1.58-1,1.58-3.15s-.52-3.25-1.58-3.25-1.58,1.08-1.58,3.25S117.75,55.15,118.8,55.15Zm0-2.27a.85.85,0,0,1-.63-.24.93.93,0,0,1,0-1.27.9.9,0,1,1,.63,1.51Z"/><path class="cls-4" d="M123.31,56.11V55h2.21v1.12Zm.12-6.44V48.49l2-.7V49Zm2,6.44V47.79h1.22v8.32Zm1.1,0V55h2v1.12Z"/><path class="cls-4" d="M130.35,56.11V55h2.2v1.12Zm.11-6.44V48.49l2-.7V49Zm2,6.44V47.79h1.22v8.32Zm1.1,0V55h2v1.12Z"/><path class="cls-4" d="M137.38,56.11V55h2.2v1.12Zm.11-6.44V48.49l2-.7V49Zm2,6.44V47.79h1.22v8.32Zm1.1,0V55h2v1.12Z"/><path class="cls-4" d="M146.93,56.22c-1.89,0-2.84-1.4-2.84-4.22s.95-4.33,2.84-4.33,2.83,1.44,2.83,4.33S148.82,56.22,146.93,56.22Zm0-1.07c1,0,1.58-1,1.58-3.15s-.53-3.25-1.58-3.25-1.58,1.08-1.58,3.25S145.87,55.15,146.93,55.15Zm0-2.27a.88.88,0,0,1-.64-.24,1,1,0,0,1,0-1.27,1,1,0,0,1,1.28,0,1,1,0,0,1,0,1.27A.88.88,0,0,1,146.93,52.88Z"/><path class="cls-4" d="M154,56.22c-1.89,0-2.84-1.4-2.84-4.22s.95-4.33,2.84-4.33,2.83,1.44,2.83,4.33S155.85,56.22,154,56.22Zm0-1.07c1,0,1.58-1,1.58-3.15S155,48.75,154,48.75s-1.58,1.08-1.58,3.25S152.9,55.15,154,55.15Zm0-2.27a.89.89,0,0,1-.64-.24,1,1,0,0,1,0-1.27.89.89,0,0,1,.64-.24.88.88,0,0,1,.64.24,1,1,0,0,1,0,1.27A.88.88,0,0,1,154,52.88Z"/><path class="cls-4" d="M158.47,56.11V55h2.2v1.12Zm.12-6.44V48.49l2-.7V49Zm2,6.44V47.79h1.22v8.32Zm1.1,0V55h2v1.12Z"/><path class="cls-4" d="M48.49,70.62c-1.89,0-2.84-1.4-2.84-4.22s1-4.33,2.84-4.33,2.84,1.44,2.84,4.33S50.38,70.62,48.49,70.62Zm0-1.07c1,0,1.58-1,1.58-3.15s-.53-3.25-1.58-3.25-1.58,1.08-1.58,3.25S47.44,69.55,48.49,69.55Zm0-2.27a.89.89,0,0,1-.64-.24,1,1,0,0,1,0-1.27.89.89,0,0,1,.64-.24.88.88,0,1,1,0,1.75Z"/><path class="cls-4" d="M53,70.51V69.39h2.21v1.12Zm.12-6.44V62.89l2-.7v1.2Zm2,6.44V62.19h1.22v8.32Zm1.1,0V69.39h2v1.12Z"/><path class="cls-4" d="M62.55,70.62c-1.89,0-2.83-1.4-2.83-4.22s.94-4.33,2.83-4.33,2.84,1.44,2.84,4.33S64.44,70.62,62.55,70.62Zm0-1.07c1.06,0,1.58-1,1.58-3.15s-.52-3.25-1.58-3.25S61,64.23,61,66.4,61.5,69.55,62.55,69.55Zm0-2.27a.85.85,0,0,1-.63-.24.93.93,0,0,1,0-1.27.9.9,0,1,1,.63,1.51Z"/><path class="cls-4" d="M69.58,70.62c-1.89,0-2.83-1.4-2.83-4.22s.94-4.33,2.83-4.33,2.84,1.44,2.84,4.33S71.47,70.62,69.58,70.62Zm0-1.07q1.59,0,1.59-3.15c0-2.17-.53-3.25-1.59-3.25S68,64.23,68,66.4,68.53,69.55,69.58,69.55Zm0-2.27a.83.83,0,1,1,.64-.24A.85.85,0,0,1,69.58,67.28Z"/><path class="cls-4" d="M74.1,70.51V69.39h2.2v1.12Zm.11-6.44V62.89l2-.7v1.2Zm2,6.44V62.19H77.4v8.32Zm1.1,0V69.39h2v1.12Z"/><path class="cls-4" d="M81.13,70.51V69.39h2.2v1.12Zm.11-6.44V62.89l2-.7v1.2Zm2,6.44V62.19h1.22v8.32Zm1.1,0V69.39h2v1.12Z"/><path class="cls-4" d="M90.68,70.62c-1.89,0-2.84-1.4-2.84-4.22s1-4.33,2.84-4.33,2.83,1.44,2.83,4.33S92.57,70.62,90.68,70.62Zm0-1.07c1,0,1.58-1,1.58-3.15s-.53-3.25-1.58-3.25S89.1,64.23,89.1,66.4,89.62,69.55,90.68,69.55Zm0-2.27A.88.88,0,0,1,90,67a1,1,0,0,1,0-1.27,1,1,0,0,1,1.28,0,1,1,0,0,1,0,1.27A.88.88,0,0,1,90.68,67.28Z"/><path class="cls-4" d="M95.19,70.51V69.39h2.2v1.12Zm.12-6.44V62.89l2-.7v1.2Zm2,6.44V62.19h1.21v8.32Zm1.1,0V69.39h2v1.12Z"/><path class="cls-4" d="M104.74,70.62c-1.89,0-2.84-1.4-2.84-4.22s.95-4.33,2.84-4.33,2.84,1.44,2.84,4.33S106.63,70.62,104.74,70.62Zm0-1.07c1.05,0,1.58-1,1.58-3.15s-.53-3.25-1.58-3.25-1.58,1.08-1.58,3.25S103.69,69.55,104.74,69.55Zm0-2.27a.89.89,0,0,1-.64-.24,1,1,0,0,1,0-1.27.89.89,0,0,1,.64-.24.88.88,0,1,1,0,1.75Z"/><path class="cls-4" d="M109.25,70.51V69.39h2.21v1.12Zm.12-6.44V62.89l2-.7v1.2Zm2,6.44V62.19h1.22v8.32Zm1.1,0V69.39h2v1.12Z"/><path class="cls-4" d="M116.28,70.51V69.39h2.21v1.12Zm.12-6.44V62.89l2-.7v1.2Zm2,6.44V62.19h1.22v8.32Zm1.1,0V69.39h2v1.12Z"/><path class="cls-4" d="M125.83,70.62c-1.89,0-2.83-1.4-2.83-4.22s.94-4.33,2.83-4.33,2.84,1.44,2.84,4.33S127.72,70.62,125.83,70.62Zm0-1.07q1.59,0,1.59-3.15c0-2.17-.53-3.25-1.59-3.25s-1.58,1.08-1.58,3.25S124.78,69.55,125.83,69.55Zm0-2.27a.83.83,0,1,1,.64-.24A.85.85,0,0,1,125.83,67.28Z"/><path class="cls-4" d="M132.87,70.62c-1.9,0-2.84-1.4-2.84-4.22s.94-4.33,2.84-4.33,2.83,1.44,2.83,4.33S134.76,70.62,132.87,70.62Zm0-1.07c1,0,1.58-1,1.58-3.15s-.53-3.25-1.58-3.25-1.59,1.08-1.59,3.25S131.81,69.55,132.87,69.55Zm0-2.27a.82.82,0,1,1,.63-.24A.86.86,0,0,1,132.87,67.28Z"/><path class="cls-4" d="M137.38,70.51V69.39h2.2v1.12Zm.11-6.44V62.89l2-.7v1.2Zm2,6.44V62.19h1.22v8.32Zm1.1,0V69.39h2v1.12Z"/><path class="cls-4" d="M146.93,70.62c-1.89,0-2.84-1.4-2.84-4.22s.95-4.33,2.84-4.33,2.83,1.44,2.83,4.33S148.82,70.62,146.93,70.62Zm0-1.07c1,0,1.58-1,1.58-3.15s-.53-3.25-1.58-3.25-1.58,1.08-1.58,3.25S145.87,69.55,146.93,69.55Zm0-2.27a.88.88,0,0,1-.64-.24,1,1,0,0,1,0-1.27,1,1,0,0,1,1.28,0,1,1,0,0,1,0,1.27A.88.88,0,0,1,146.93,67.28Z"/><path class="cls-4" d="M154,70.62c-1.89,0-2.84-1.4-2.84-4.22s.95-4.33,2.84-4.33,2.83,1.44,2.83,4.33S155.85,70.62,154,70.62Zm0-1.07c1,0,1.58-1,1.58-3.15S155,63.15,154,63.15s-1.58,1.08-1.58,3.25S152.9,69.55,154,69.55Zm0-2.27a.89.89,0,0,1-.64-.24,1,1,0,0,1,0-1.27.89.89,0,0,1,.64-.24.88.88,0,0,1,.64.24,1,1,0,0,1,0,1.27A.88.88,0,0,1,154,67.28Z"/><path class="cls-4" d="M161,70.62c-1.89,0-2.84-1.4-2.84-4.22s.95-4.33,2.84-4.33,2.84,1.44,2.84,4.33S162.88,70.62,161,70.62Zm0-1.07c1,0,1.58-1,1.58-3.15S162,63.15,161,63.15s-1.58,1.08-1.58,3.25S159.94,69.55,161,69.55Zm0-2.27a.89.89,0,0,1-.64-.24,1,1,0,0,1,0-1.27.89.89,0,0,1,.64-.24.88.88,0,1,1,0,1.75Z"/><path class="cls-4" d="M46,84.91V83.79h2.2v1.12Zm.12-6.44V77.29l2-.7v1.2Zm2,6.44V76.59h1.22v8.32Zm1.1,0V83.79h2v1.12Z"/><path class="cls-4" d="M55.52,85c-1.89,0-2.83-1.4-2.83-4.22s.94-4.33,2.83-4.33,2.84,1.44,2.84,4.33S57.41,85,55.52,85Zm0-1.08c1.06,0,1.58-1,1.58-3.14s-.52-3.25-1.58-3.25-1.58,1.08-1.58,3.25S54.47,83.94,55.52,83.94Zm0-2.26a.85.85,0,0,1-.63-.24.93.93,0,0,1,0-1.27.9.9,0,1,1,.63,1.51Z"/><path class="cls-4" d="M62.55,85c-1.89,0-2.83-1.4-2.83-4.22s.94-4.33,2.83-4.33,2.84,1.44,2.84,4.33S64.44,85,62.55,85Zm0-1.08c1.06,0,1.58-1,1.58-3.14s-.52-3.25-1.58-3.25S61,78.63,61,80.8,61.5,83.94,62.55,83.94Zm0-2.26a.85.85,0,0,1-.63-.24.93.93,0,0,1,0-1.27.9.9,0,1,1,.63,1.51Z"/><path class="cls-4" d="M69.58,85c-1.89,0-2.83-1.4-2.83-4.22s.94-4.33,2.83-4.33,2.84,1.44,2.84,4.33S71.47,85,69.58,85Zm0-1.08c1.06,0,1.59-1,1.59-3.14s-.53-3.25-1.59-3.25S68,78.63,68,80.8,68.53,83.94,69.58,83.94Zm0-2.26a.83.83,0,1,1,.64-.24A.85.85,0,0,1,69.58,81.68Z"/><path class="cls-4" d="M74.1,84.91V83.79h2.2v1.12Zm.11-6.44V77.29l2-.7v1.2Zm2,6.44V76.59H77.4v8.32Zm1.1,0V83.79h2v1.12Z"/><path class="cls-4" d="M83.65,85c-1.89,0-2.84-1.4-2.84-4.22s1-4.33,2.84-4.33,2.83,1.44,2.83,4.33S85.54,85,83.65,85Zm0-1.08c1,0,1.58-1,1.58-3.14s-.53-3.25-1.58-3.25-1.59,1.08-1.59,3.25S82.59,83.94,83.65,83.94Zm0-2.26a.88.88,0,1,1,0-1.75.89.89,0,0,1,.64.24,1,1,0,0,1,0,1.27A.89.89,0,0,1,83.65,81.68Z"/><path class="cls-4" d="M90.68,85c-1.89,0-2.84-1.4-2.84-4.22s1-4.33,2.84-4.33,2.83,1.44,2.83,4.33S92.57,85,90.68,85Zm0-1.08c1,0,1.58-1,1.58-3.14s-.53-3.25-1.58-3.25S89.1,78.63,89.1,80.8,89.62,83.94,90.68,83.94Zm0-2.26a.88.88,0,0,1-.64-.24,1,1,0,0,1,0-1.27,1,1,0,0,1,1.28,0,1,1,0,0,1,0,1.27A.88.88,0,0,1,90.68,81.68Z"/><path class="cls-4" d="M95.19,84.91V83.79h2.2v1.12Zm.12-6.44V77.29l2-.7v1.2Zm2,6.44V76.59h1.21v8.32Zm1.1,0V83.79h2v1.12Z"/><path class="cls-4" d="M104.74,85c-1.89,0-2.84-1.4-2.84-4.22s.95-4.33,2.84-4.33,2.84,1.44,2.84,4.33S106.63,85,104.74,85Zm0-1.08c1.05,0,1.58-1,1.58-3.14s-.53-3.25-1.58-3.25-1.58,1.08-1.58,3.25S103.69,83.94,104.74,83.94Zm0-2.26a.89.89,0,0,1-.64-.24,1,1,0,0,1,0-1.27.89.89,0,0,1,.64-.24.88.88,0,1,1,0,1.75Z"/><path class="cls-4" d="M109.25,84.91V83.79h2.21v1.12Zm.12-6.44V77.29l2-.7v1.2Zm2,6.44V76.59h1.22v8.32Zm1.1,0V83.79h2v1.12Z"/><path class="cls-4" d="M118.8,85c-1.89,0-2.83-1.4-2.83-4.22s.94-4.33,2.83-4.33,2.84,1.44,2.84,4.33S120.69,85,118.8,85Zm0-1.08c1.06,0,1.58-1,1.58-3.14s-.52-3.25-1.58-3.25-1.58,1.08-1.58,3.25S117.75,83.94,118.8,83.94Zm0-2.26a.85.85,0,0,1-.63-.24.93.93,0,0,1,0-1.27.9.9,0,1,1,.63,1.51Z"/><path class="cls-4" d="M123.31,84.91V83.79h2.21v1.12Zm.12-6.44V77.29l2-.7v1.2Zm2,6.44V76.59h1.22v8.32Zm1.1,0V83.79h2v1.12Z"/><path class="cls-4" d="M132.87,85C131,85,130,83.62,130,80.8s.94-4.33,2.84-4.33,2.83,1.44,2.83,4.33S134.76,85,132.87,85Zm0-1.08c1,0,1.58-1,1.58-3.14s-.53-3.25-1.58-3.25-1.59,1.08-1.59,3.25S131.81,83.94,132.87,83.94Zm0-2.26a.82.82,0,1,1,.63-.24A.86.86,0,0,1,132.87,81.68Z"/><path class="cls-4" d="M139.9,85c-1.89,0-2.84-1.4-2.84-4.22s.95-4.33,2.84-4.33,2.83,1.44,2.83,4.33S141.79,85,139.9,85Zm0-1.08c1,0,1.58-1,1.58-3.14s-.53-3.25-1.58-3.25-1.59,1.08-1.59,3.25S138.84,83.94,139.9,83.94Zm0-2.26a.88.88,0,1,1,0-1.75.88.88,0,0,1,.64.24,1,1,0,0,1,0,1.27A.88.88,0,0,1,139.9,81.68Z"/><path class="cls-4" d="M144.41,84.91V83.79h2.2v1.12Zm.12-6.44V77.29l2-.7v1.2Zm2,6.44V76.59h1.22v8.32Zm1.11,0V83.79h2v1.12Z"/><path class="cls-4" d="M154,85c-1.89,0-2.84-1.4-2.84-4.22s.95-4.33,2.84-4.33,2.83,1.44,2.83,4.33S155.85,85,154,85Zm0-1.08c1,0,1.58-1,1.58-3.14S155,77.55,154,77.55s-1.58,1.08-1.58,3.25S152.9,83.94,154,83.94Zm0-2.26a.89.89,0,0,1-.64-.24,1,1,0,0,1,0-1.27.89.89,0,0,1,.64-.24.88.88,0,0,1,.64.24,1,1,0,0,1,0,1.27A.88.88,0,0,1,154,81.68Z"/><path class="cls-4" d="M158.47,84.91V83.79h2.2v1.12Zm.12-6.44V77.29l2-.7v1.2Zm2,6.44V76.59h1.22v8.32Zm1.1,0V83.79h2v1.12Z"/><path class="cls-4" d="M46,99.31V98.19h2.2v1.12Zm.12-6.44V91.69l2-.7v1.2Zm2,6.44V91h1.22v8.32Zm1.1,0V98.19h2v1.12Z"/><path class="cls-4" d="M55.52,99.42c-1.89,0-2.83-1.4-2.83-4.22s.94-4.33,2.83-4.33,2.84,1.44,2.84,4.33S57.41,99.42,55.52,99.42Zm0-1.07c1.06,0,1.58-1,1.58-3.15S56.58,92,55.52,92,53.94,93,53.94,95.2,54.47,98.35,55.52,98.35Zm0-2.27a.85.85,0,0,1-.63-.24.93.93,0,0,1,0-1.27.9.9,0,1,1,.63,1.51Z"/><path class="cls-4" d="M60,99.31V98.19h2.21v1.12Zm.12-6.44V91.69l2-.7v1.2Zm2,6.44V91h1.22v8.32Zm1.1,0V98.19h2v1.12Z"/><path class="cls-4" d="M69.58,99.42c-1.89,0-2.83-1.4-2.83-4.22s.94-4.33,2.83-4.33,2.84,1.44,2.84,4.33S71.47,99.42,69.58,99.42Zm0-1.07q1.59,0,1.59-3.15c0-2.17-.53-3.25-1.59-3.25S68,93,68,95.2,68.53,98.35,69.58,98.35Zm0-2.27a.83.83,0,1,1,.64-.24A.85.85,0,0,1,69.58,96.08Z"/><path class="cls-4" d="M76.62,99.42c-1.9,0-2.84-1.4-2.84-4.22s.94-4.33,2.84-4.33,2.83,1.44,2.83,4.33S78.51,99.42,76.62,99.42Zm0-1.07c1,0,1.58-1,1.58-3.15S77.67,92,76.62,92,75,93,75,95.2,75.56,98.35,76.62,98.35Zm0-2.27a.82.82,0,1,1,.63-.24A.86.86,0,0,1,76.62,96.08Z"/><path class="cls-4" d="M81.13,99.31V98.19h2.2v1.12Zm.11-6.44V91.69l2-.7v1.2Zm2,6.44V91h1.22v8.32Zm1.1,0V98.19h2v1.12Z"/><path class="cls-4" d="M90.68,99.42c-1.89,0-2.84-1.4-2.84-4.22s1-4.33,2.84-4.33,2.83,1.44,2.83,4.33S92.57,99.42,90.68,99.42Zm0-1.07c1,0,1.58-1,1.58-3.15S91.73,92,90.68,92,89.1,93,89.1,95.2,89.62,98.35,90.68,98.35Zm0-2.27a.88.88,0,0,1-.64-.24,1,1,0,0,1,0-1.27,1,1,0,0,1,1.28,0,1,1,0,0,1,0,1.27A.88.88,0,0,1,90.68,96.08Z"/><path class="cls-4" d="M95.19,99.31V98.19h2.2v1.12Zm.12-6.44V91.69l2-.7v1.2Zm2,6.44V91h1.21v8.32Zm1.1,0V98.19h2v1.12Z"/><path class="cls-4" d="M102.22,99.31V98.19h2.2v1.12Zm.12-6.44V91.69l2-.7v1.2Zm2,6.44V91h1.22v8.32Zm1.1,0V98.19h2v1.12Z"/><path class="cls-4" d="M111.77,99.42c-1.89,0-2.83-1.4-2.83-4.22s.94-4.33,2.83-4.33,2.84,1.44,2.84,4.33S113.66,99.42,111.77,99.42Zm0-1.07c1.06,0,1.58-1,1.58-3.15S112.83,92,111.77,92s-1.58,1.08-1.58,3.25S110.72,98.35,111.77,98.35Zm0-2.27a.85.85,0,0,1-.63-.24.93.93,0,0,1,0-1.27.9.9,0,1,1,.63,1.51Z"/><path class="cls-4" d="M116.28,99.31V98.19h2.21v1.12Zm.12-6.44V91.69l2-.7v1.2Zm2,6.44V91h1.22v8.32Zm1.1,0V98.19h2v1.12Z"/><path class="cls-4" d="M125.83,99.42c-1.89,0-2.83-1.4-2.83-4.22s.94-4.33,2.83-4.33,2.84,1.44,2.84,4.33S127.72,99.42,125.83,99.42Zm0-1.07q1.59,0,1.59-3.15c0-2.17-.53-3.25-1.59-3.25s-1.58,1.08-1.58,3.25S124.78,98.35,125.83,98.35Zm0-2.27a.83.83,0,1,1,.64-.24A.85.85,0,0,1,125.83,96.08Z"/><path class="cls-4" d="M130.35,99.31V98.19h2.2v1.12Zm.11-6.44V91.69l2-.7v1.2Zm2,6.44V91h1.22v8.32Zm1.1,0V98.19h2v1.12Z"/><path class="cls-4" d="M139.9,99.42c-1.89,0-2.84-1.4-2.84-4.22s.95-4.33,2.84-4.33,2.83,1.44,2.83,4.33S141.79,99.42,139.9,99.42Zm0-1.07c1,0,1.58-1,1.58-3.15S141,92,139.9,92s-1.59,1.08-1.59,3.25S138.84,98.35,139.9,98.35Zm0-2.27a.88.88,0,1,1,0-1.75.88.88,0,0,1,.64.24,1,1,0,0,1,0,1.27A.88.88,0,0,1,139.9,96.08Z"/><path class="cls-4" d="M144.41,99.31V98.19h2.2v1.12Zm.12-6.44V91.69l2-.7v1.2Zm2,6.44V91h1.22v8.32Zm1.11,0V98.19h2v1.12Z"/><path class="cls-4" d="M151.44,99.31V98.19h2.2v1.12Zm.12-6.44V91.69l2-.7v1.2Zm2,6.44V91h1.21v8.32Zm1.1,0V98.19h2v1.12Z"/><path class="cls-4" d="M161,99.42c-1.89,0-2.84-1.4-2.84-4.22s.95-4.33,2.84-4.33,2.84,1.44,2.84,4.33S162.88,99.42,161,99.42Zm0-1.07c1,0,1.58-1,1.58-3.15S162,92,161,92s-1.58,1.08-1.58,3.25S159.94,98.35,161,98.35Zm0-2.27a.89.89,0,0,1-.64-.24,1,1,0,0,1,0-1.27.89.89,0,0,1,.64-.24.88.88,0,1,1,0,1.75Z"/><ellipse class="cls-4" cx="163.24" cy="19.39" rx="2.36" ry="2.39" transform="translate(100.35 171.27) rotate(-74.28)"/><line class="cls-5" x1="160.48" y1="28.24" x2="162.37" y2="21.25"/><line class="cls-5" x1="165.72" y1="31.06" x2="160.04" y2="28.09"/><line class="cls-5" x1="165.73" y1="35.88" x2="165.26" y2="30.81"/><line class="cls-5" x1="162.7" y1="23.17" x2="168.25" y2="26.26"/><line class="cls-6" x1="167.12" y1="28.26" x2="171.38" y2="26.69"/><line class="cls-6" x1="173.06" y1="23.2" x2="172.63" y2="24.72"/><line class="cls-6" x1="173.01" y1="18.54" x2="173.01" y2="23.23"/></g></g></svg>